<?xml version="1.0" encoding="UTF-8"?>
<svg width="13px" height="13px" viewBox="0 0 13 13" version="1.1" xmlns="http://www.w3.org/2000/svg" xmlns:xlink="http://www.w3.org/1999/xlink">
    <!-- Generator: Sketch 46.2 (44496) - http://www.bohemiancoding.com/sketch -->
    <title>homepage_exchange_icon@3x</title>
    <desc>Created with Sketch.</desc>
    <defs></defs>
    <g id="切图" stroke="none" stroke-width="1" fill="none" fill-rule="evenodd">
        <g id="homepage_exchange_icon">
            <g id="刷新">
                <rect id="Rectangle" x="0" y="0" width="12" height="12"></rect>
                <g id="Group" transform="translate(1.000000, 1.000000)" stroke="#99A1B2" stroke-width="0.5" fill="#99A1B2" fill-rule="nonzero">
                    <path d="M10.9409793,4.59169511 C10.7699809,3.44339815 10.2435988,2.40130805 9.41870227,1.57809209 C8.59380576,0.754876122 7.54961594,0.229534301 6.39899182,0.0589060816 C5.84546984,-0.0231778197 5.28477815,-0.0194600356 4.73246537,0.0699619355 C4.1729951,0.160554091 3.63474084,0.337142965 3.13261611,0.59486496 C3.01263626,0.656446171 2.96539184,0.803426815 3.02709785,0.923163996 C3.08880386,1.04288898 3.23607017,1.09005005 3.35606223,1.02846884 C5.26028873,0.0511170172 7.55783609,0.410547963 9.07322433,1.9228713 C10.2362092,3.08350401 10.7186935,4.70388702 10.4375721,6.25376612 C10.2094724,5.86344706 9.91265572,5.57939581 9.40900422,5.20403322 C9.30629522,5.12748334 9.05164189,5.01861917 9.01178704,5.26676025 C8.99473605,5.37293054 9.46373594,5.93903397 9.67534652,6.52514033 C9.9253096,7.21752669 9.84522126,7.40300168 9.94669663,7.78470279 C9.94922496,7.79818435 9.95291365,7.81139773 9.95766496,7.82425763 C9.95766496,7.82425763 9.95766496,7.82425763 9.95766496,7.82425763 C10.024391,8.05513841 10.2619689,8.02454283 10.3455749,7.92521083 C10.3457215,7.92504018 10.3458803,7.92482076 10.3460269,7.92465011 C10.3691972,7.90475689 10.3890941,7.88026825 10.4039343,7.85146453 C10.6621786,7.35036755 10.8391253,6.81318974 10.9299011,6.25485099 C11.0195042,5.70366746 11.0232173,5.14409758 10.9409793,4.59169511 Z" id="Shape"></path>
                    <path d="M7.64391348,9.96946498 C5.7396877,10.9487871 3.442129,10.5886271 1.92675355,9.07324823 C0.764282113,7.91077417 0.281700247,6.28804473 0.56201545,4.73566905 C0.793107547,5.14715316 1.09266008,5.43804649 1.61291044,5.82656791 C1.7156194,5.90327307 1.97027263,6.01235807 2.01012747,5.76371364 C2.02717845,5.65732798 1.55817874,5.09007622 1.34656824,4.50278095 C1.0881164,3.78545333 1.18251972,3.6111323 1.06424992,3.2010284 C1.04826157,3.14557594 1.02239196,3.10531795 0.991245826,3.07731079 C0.972631426,3.05747494 0.950597068,3.04025292 0.925020598,3.02709823 C0.805053024,2.9653921 0.657762339,3.01263661 0.59606856,3.13260447 C0.337836569,3.63471792 0.160865463,4.17298539 0.070101957,4.73245672 C-0.0195011924,5.28475832 -0.0232265215,5.84545106 0.0590359238,6.39897407 C0.230022087,7.54960035 0.756403967,8.59381654 1.58130017,9.41870238 C2.40618416,10.2435882 3.45038578,10.7699835 4.60102169,10.9409701 C5.15453124,11.0232205 5.71523493,11.0195073 6.26753529,10.9298918 C6.82700535,10.8391159 7.36527162,10.6621566 7.86738394,10.403924 C7.98736374,10.3422301 8.03460815,10.1949391 7.97290216,10.0749712 C7.91118395,9.9549423 7.76388106,9.90775885 7.64391348,9.96946498 Z" id="Shape"></path>
                </g>
            </g>
        </g>
    </g>
</svg>